<svg width="20" height="22" viewBox="0 0 20 22" fill="none" xmlns="http://www.w3.org/2000/svg">
<path d="M9.99219 2.08362C5.16211 2.0816 1.25 6.12752 1.25 11.1213C1.25 15.0702 3.69727 18.427 7.10547 19.6598C7.56445 19.779 7.49414 19.4415 7.49414 19.2111V17.6449C4.84375 17.9662 4.73633 16.1514 4.55859 15.8483C4.19922 15.2137 3.34961 15.052 3.60352 14.7489C4.20703 14.4275 4.82227 14.8297 5.53516 15.919C6.05078 16.7092 7.05664 16.5758 7.56641 16.4444C7.67773 15.9695 7.91602 15.5451 8.24414 15.2157C5.49805 14.7064 4.35352 12.9725 4.35352 10.9111C4.35352 9.91073 4.67188 8.9912 5.29688 8.24951C4.89844 7.02684 5.33398 5.98 5.39258 5.82438C6.52734 5.71929 7.70703 6.6651 7.79883 6.73987C8.44336 6.56001 9.17969 6.46502 10.0039 6.46502C10.832 6.46502 11.5703 6.56405 12.2207 6.74593C12.4414 6.57213 13.5352 5.75971 14.5898 5.85874C14.6465 6.01435 15.0723 7.03695 14.6973 8.24345C15.3301 8.98716 15.6523 9.91477 15.6523 10.9172C15.6523 12.9826 14.5 14.7186 11.7461 15.2197C11.982 15.4598 12.1693 15.746 12.297 16.0618C12.4248 16.3775 12.4905 16.7165 12.4902 17.0588V19.3324C12.5059 19.5142 12.4902 19.6941 12.7832 19.6941C16.2422 18.4876 18.7324 15.1066 18.7324 11.1233C18.7324 6.12752 14.8184 2.08362 9.99219 2.08362Z" fill="black"/>
</svg>
