<svg width="54" height="54" viewBox="0 0 54 54" fill="none" xmlns="http://www.w3.org/2000/svg">
<g clip-path="url(#clip0)">
<path d="M27.6054 2.44141C27.3359 1.97656 26.664 1.97656 26.3945 2.44141L3.39841 42.2461C3.12888 42.7109 3.46482 43.2929 4.00388 43.2929H49.996C50.5351 43.2929 50.871 42.7109 50.6015 42.2461L27.6054 2.44141Z" fill="#20BBBB" stroke="#EAFFFA" stroke-width="3.25862"/>
<path d="M3.39844 42.2461C3.12891 42.7109 3.46485 43.293 4.00391 43.293H27V3.49219C27 3.10547 27.3125 2.79297 27.6992 2.79297H27.8086L27.6055 2.44141C27.3359 1.97656 26.6641 1.97656 26.3945 2.44141L26.1914 2.79297L3.39844 42.2461Z" fill="#EA543F"/>
<path d="M40.9648 33.0508H42.3633H40.9648ZM27 4.65625V7.91406V4.65625ZM27 41.664V39.1015V41.664ZM27 38.1719H23.7422L21.8789 41.8984L27 38.1719ZM27 38.1719V34.914V38.1719ZM27 38.1719V39.1015V38.1719ZM27 34.914H21.4141L20.0156 37.2422H18.3867L27 34.914ZM27 34.914V33.0508V34.914ZM15.3633 34.914L16.7578 37.2422H18.3867L15.3633 34.914ZM18.3867 37.2422V40.5V37.2422ZM15.3633 40.5L12.3359 35.3789V33.9844L15.3633 40.5ZM13.7344 26.5351V27.9297V26.5351ZM12.3359 33.9844V32.1211L13.7344 29.793V27.9297L12.3359 33.9844ZM12.3359 33.9844H9.54297H12.3359ZM7.91406 36.7773H9.77734L11.1719 39.5703H12.5703V41.664L7.91406 36.7773ZM8.3789 41.664V39.5703H6.05078L8.3789 41.664ZM13.7344 27.9297H14.8984L15.8281 29.3281L13.7344 27.9297ZM15.5937 31.8867L16.5273 33.75H18.3867V31.8867H15.5937ZM20.0156 30.0273H18.3867V31.8867L20.0156 30.0273ZM26.5351 30.0273H25.1367H26.5351ZM21.8789 26.5351H20.0156L19.0859 25.1367L21.8789 26.5351ZM18.1562 23.7422H15.8281H18.1562ZM18.1562 23.7422L19.0859 25.1367L18.1562 23.7422ZM18.1562 23.7422V23.043V23.7422ZM22.8086 33.0508L23.7422 30.0273H25.1367L22.8086 33.0508ZM18.3867 31.8867H20.9492H18.3867ZM19.0859 25.1367L18.1562 27V27.9297L19.0859 25.1367ZM15.8281 20.9492H18.1562V23.043L15.8281 20.9492ZM17.6914 17.6914H19.5508L20.9492 20.4844L17.6914 17.6914ZM20.9492 20.4844H22.3437H20.9492ZM20.9492 20.4844V23.043H18.1562L20.9492 20.4844ZM26.5351 27.4648H24.6719L23.2773 25.1367V23.2773H25.1367V25.1367H26.5351V27.4648ZM25.1367 30.0273V32.3515V30.0273ZM20.4844 14.8984H21.8789H20.4844ZM23.7422 18.1562V14.8984H21.8789L23.7422 18.1562ZM26.5351 18.1562H25.1367V20.4844L27 22.3437L26.5351 18.1562ZM21.8789 14.8984V17.2226V14.8984ZM27 22.3437V20.0156V22.3437ZM27 22.3437V27V22.3437ZM21.8789 12.5703H24.207L24.7656 13.5L21.8789 12.5703ZM27 14.8984H25.6016L24.7656 13.5L27 14.8984ZM27 14.8984V10.707V14.8984ZM27 14.8984V16.293V14.8984ZM24.7656 13.5L27 10.707L24.7656 13.5ZM27 10.707V7.91406V10.707ZM24.6719 7.44922V8.84375V7.44922ZM23.2773 10.707H24.6719V8.84375L23.2773 10.707ZM24.6719 8.84375H26.5351H24.6719ZM27 16.293H29.793L30.6641 14.8984L27 16.293ZM27 16.293V20.0156V16.293ZM32.1211 12.5703L30.6641 14.8984L32.1211 12.5703ZM27 7.91406H27.9297L28.3984 8.84375L27 7.91406ZM31.4219 11.6367H28.8633V9.77734L28.3984 8.84375L31.4219 11.6367ZM28.3984 8.84375L29.793 7.91406L28.3984 8.84375ZM30.6641 14.8984L29.3281 13.5H27.4648L30.6641 14.8984ZM27 20.0156H28.8633L29.3281 18.1562H31.1914V22.8086H29.3281L27 20.0156ZM32.5859 23.7422H34.4492H32.5859ZM38.6367 23.7422H36.7773V25.8359L38.6367 23.7422ZM33.5156 14.8984V19.0859V14.8984ZM36.7773 20.9492H33.5156V19.0859L36.7773 20.9492ZM33.5156 19.0859H35.8437H33.5156ZM27.4648 22.8086H29.3281H27.4648ZM27 27H31.1914V28.8633L27 27ZM27 27V33.0508V27ZM31.1914 32.5859V30.2578V32.5859ZM31.1914 28.8633H29.3281V31.1914L27 33.0508L31.1914 28.8633ZM31.1914 28.8633V30.2578V28.8633ZM29.3281 22.8086V24.6719V22.8086ZM31.1914 30.2578H33.5156H31.1914ZM40.9648 27.9297H37.707H40.9648ZM39.1015 32.1211H35.3789V30.2578L36.7773 27.9297H37.707L39.1015 32.1211ZM40.5 30.2578H41.8984H40.5ZM37.707 27.9297V30.2578V27.9297ZM34.4492 23.7422V25.6016L33.0508 27.4648L34.4492 23.7422ZM34.4492 23.7422V22.3437V23.7422ZM39.5703 41.664V38.1719L40.2344 37.2422L39.5703 41.664ZM45.1562 34.914H41.8984L40.2344 37.2422L45.1562 34.914ZM40.2344 37.2422H43.7578L44.2812 37.9414L40.2344 37.2422ZM47.4844 39.1015H46.0859H47.4844ZM46.0859 39.1015H45.1562L44.2812 37.9414L46.0859 39.1015ZM46.0859 39.1015V41.664V39.1015ZM44.2812 37.9414L42.8281 39.5703V41.664L44.2812 37.9414ZM27 39.1015H30.4922L32.1211 37.2422V33.5156L27 39.1015ZM34.4492 36.7773V39.5703H36.3086L37.4726 42.1289L34.4492 36.7773ZM31.6562 40.0351V41.664V40.0351ZM29.3281 38.6367V36.3086L30.7226 34.914L29.3281 38.6367ZM38.1719 33.9844V37.2422H37.707L35.8437 33.9844H35.3789V37.707L38.1719 33.9844ZM40.9648 31.1914V33.0508V31.1914ZM40.9648 33.0508L39.8008 34.4492L40.9648 33.0508Z" stroke="white" stroke-width="0.931034"/>
<path d="M27 43.2929V3.49219M27 43.2929H4.00388C3.46482 43.2929 3.12888 42.7109 3.39841 42.2461L26.1914 2.79297L26.3945 2.44141C26.664 1.97656 27.3359 1.97656 27.6054 2.44141L27.8086 2.79297L50.6015 42.2461C50.871 42.7109 50.5351 43.2929 49.996 43.2929H27ZM27 43.2929V2.79297V43.2929Z" stroke="white" stroke-width="3.25862"/>
<path d="M15.418 21.3437C15.293 21.8594 15.7891 25.125 15.7891 25.125C15.7891 25.125 18.6484 19.4375 27.0078 19.4375C34.9258 19.4375 38.1484 25.3242 38.1484 25.3242C38.1484 25.3242 38.707 21.8594 38.582 21.3437C38.1719 19.6836 37.5508 18.0039 36.3594 16.7891C31.2344 11.8398 22.7812 11.7266 17.6406 16.7891C16.4492 18.0039 15.8281 19.6836 15.418 21.3437Z" fill="#151515"/>
<path d="M39.9336 22.0078C39.3398 20.3477 38.7422 19.3516 36.957 17.3047C36.7656 17.1289 36.5664 16.957 36.3594 16.7891C37.5508 18.0039 38.1719 19.6836 38.582 21.3438C38.707 21.8594 38.1484 25.3242 38.1484 25.3242C37.4726 26.4688 35.168 29.9688 33.9765 30.6328C32.7851 31.2969 32.6836 31.3516 32.4101 32.3086C31.9609 35.125 33.4883 39.5547 35.0117 41.25C37.0273 41.8125 38.1015 40.9492 39.3008 40.2695C39.5234 40.1445 39.7344 40.0273 39.9336 39.9219C37.6289 39.3867 34.582 35.5195 40.8281 24.3594C40.6836 24.0273 40.543 23.6289 40.4023 23.2305C40.2461 22.793 40.0898 22.3555 39.9336 22.0078Z" fill="#151515"/>
<path d="M17.043 17.3047C15.2578 19.3516 14.6602 20.3477 14.0664 22.0078C13.9102 22.3555 13.7539 22.793 13.5977 23.2305C13.457 23.6289 13.3164 24.0273 13.1719 24.3594C19.418 35.5195 16.3711 39.3867 14.0664 39.9219C14.2656 40.0273 14.4766 40.1445 14.6992 40.2695C15.8984 40.9492 17.4141 41.8125 19.4258 41.25C20.9492 39.5547 22.0391 35.125 21.5898 32.3086C21.3164 31.3516 21.2148 31.2969 20.0234 30.6328C19.5508 30.4922 16.8789 27.3516 15.7891 25.125C15.7891 25.125 15.293 21.8594 15.418 21.3438C15.8281 19.6836 16.4492 18.0039 17.6406 16.7891C17.4336 16.957 17.2344 17.1289 17.043 17.3047Z" fill="#151515"/>
<path d="M40.7031 24.6719C42.7812 29.0234 44.582 37.5351 39.7539 40.0351C37.3086 39.5039 34.0781 35.6875 40.7031 24.6719Z" fill="#FF001F" stroke="#74000E" stroke-width="1.39655"/>
<path d="M13.2969 24.6719C11.2187 29.0234 9.41796 37.5351 14.2461 40.0351C16.6914 39.5039 19.9219 35.6875 13.2969 24.6719Z" fill="#00D620" stroke="#007A1A" stroke-width="1.39655"/>
<path d="M38.3555 7.74608C42.7539 4.08593 50.582 6.4453 47.0625 13.9726C47.0625 13.9726 47.0625 14.5469 46.5234 14.9062C46.7734 15.6758 46.2734 16.7812 46.0586 16.5234C46.3594 17.4414 45.6328 18.8711 44.8906 18.6015C45.0391 19.664 43.9101 20.289 43.0234 20.2187C43.0664 21.4219 40.7187 21.1367 40.6914 21.1406C40.8437 21.5664 40.6719 22.6172 38.5898 22.5273C38.5508 24.1445 37.6328 24.4765 36.957 24.1445C36.9844 24.4922 35.8555 25.2695 35.0898 24.6055C35.0547 25.5195 34.75 25.7773 33.9219 25.9922C34.3906 27.0586 33.7969 27.2617 33.457 28.043C34.043 29.1601 33.6797 29.6094 32.9883 29.8906C33.4922 31.0703 33.0039 32.0117 31.5898 32.3672C31.6406 33.3672 31.0937 33.5273 30.1875 33.1211C30.3437 34.2305 29.9883 34.6719 28.5547 34.582C28.332 35.2305 27.9101 35.7578 26.6875 35.3008C26.6758 35.6992 26.4648 36.1523 24.8203 35.6914C24.543 35.957 24.5898 36.3437 23.8867 36.1523C23.8945 36.6015 23.6719 36.9297 23.1875 37.0351C23.1797 37.7148 22.8516 38.3906 22.1758 38.9219C22.5508 39.6055 22.5976 40.2266 22.0234 40.5391C22.2148 41.5039 22.1094 42.2148 21.6797 42.6172C21.8125 43.3906 21.7109 43.9766 20.957 44.0039C21.1797 44.918 20.957 45.4922 19.6875 45.2539C19.7461 45.8828 19.4922 46.2148 18.5195 45.8789C18.2383 46.6484 17.207 46.7891 15.9531 46.3125C15.5469 47.2305 15.2539 47.0039 14.7891 47.0039C14.8281 47.543 14.7266 47.9101 14.0859 47.9297C14.0976 48.3945 13.6601 48.4687 13.1562 48.6211C13.4531 49.9101 13.0937 50.2148 12.4531 50.1836C12.5351 51.0742 12.9219 52.3555 11.7539 52.3555C11.7148 53.7266 11.0195 53.6367 9.7539 53.2422C9.51171 53.8516 9.11718 54.3086 8.3828 53.7422C8.05077 54.1523 7.73827 53.7617 7.4414 53.3867L7.42968 53.3711C6.78905 53.6797 6.46093 53.6055 6.38671 53.2422C5.5078 53.4531 5.24218 53.0312 5.21484 52.625C4.51171 52.7383 4.08593 52.4648 4.0664 52.0312C3.40234 52.1641 3.1914 52.2031 3.38671 51.5703C2.70702 51.2031 2.59765 50.9101 3.1328 50.4141C3.1328 50.0078 3.3164 49.7461 4.0664 49.7422C4.27734 49.3516 4.58202 49.2266 5.30077 49.2812C5.28905 48.8828 5.73046 48.5078 5.92187 48.6211C5.93359 48.4375 6.02343 48.125 6.38671 48.0234C6.36718 47.6953 6.54687 47.4336 6.85546 47.2344C6.64452 46.6875 6.39843 45.9101 7.3203 45.6211C7.01171 44.5039 7.22655 43.6133 7.96874 43.0781C7.7539 41.6562 8.45312 41.0273 9.7539 41.0781C9.96484 40.25 10.6445 40.2031 11.5195 40.5391C11.6367 40.0703 12.1601 39.6016 13.1562 39.4609C13.418 38.2383 13.8476 37.5703 14.3945 37.5351C14.2969 36.7851 14.6601 36.0312 15.2539 35.457C14.6797 33.2695 15.1367 32.2812 16.0781 31.9961C15.9648 30.6953 16.7969 30.1562 18.0547 30.0703C18.4101 28.7422 19.0937 28.7578 19.7695 28.9922C19.9726 28.1797 21.043 27.9805 22.0234 28.3008C22.5976 27.2695 23.7773 27.2539 24.2148 27.3203C23.6055 26.9219 23.9492 24.8359 24.8203 24.8359C24.8203 24.8359 24.7226 24.3633 25.2891 24.375C24.8476 23.1289 25.0469 22.4844 25.8437 21.832C25.6328 20.6836 25.918 19.7851 26.957 19.4219C26.9375 17.9453 27.2734 16.7148 29.0234 16.7539C30.0469 15.3789 31.3906 13.9609 32.5234 14.6758C32.75 12.9844 33.375 12.4258 35.0898 10.9805C35.5976 9.8828 36.8359 8.39061 38.3555 7.74608Z" fill="#FDFFAD" fill-opacity="0.4"/>
<path d="M38.3555 7.74608C42.7539 4.08593 50.582 6.4453 47.0625 13.9726C47.0625 13.9726 47.0625 14.5469 46.5234 14.9062C46.7734 15.6758 46.2734 16.7812 46.0586 16.5234C46.3594 17.4414 45.6328 18.8711 44.8906 18.6015C45.0391 19.664 43.9101 20.289 43.0234 20.2187C43.0664 21.4219 40.7187 21.1367 40.6914 21.1406C40.8437 21.5664 40.6719 22.6172 38.5898 22.5273C38.5508 24.1445 37.6328 24.4765 36.957 24.1445C36.9844 24.4922 35.8555 25.2695 35.0898 24.6055C35.0547 25.5195 34.75 25.7773 33.9219 25.9922C34.3906 27.0586 33.7969 27.2617 33.457 28.043C34.043 29.1601 33.6797 29.6094 32.9883 29.8906C33.4922 31.0703 33.0039 32.0117 31.5898 32.3672C31.6406 33.3672 31.0937 33.5273 30.1875 33.1211C30.3437 34.2305 29.9883 34.6719 28.5547 34.582C28.332 35.2305 27.9101 35.7578 26.6875 35.3008C26.6758 35.6992 26.4648 36.1523 24.8203 35.6914C24.543 35.957 24.5898 36.3437 23.8867 36.1523C23.8945 36.6015 23.6719 36.9297 23.1875 37.0351C23.1797 37.7148 22.8516 38.3906 22.1758 38.9219C22.5508 39.6055 22.5976 40.2266 22.0234 40.5391C22.2148 41.5039 22.1094 42.2148 21.6797 42.6172C21.8125 43.3906 21.7109 43.9766 20.957 44.0039C21.1797 44.918 20.957 45.4922 19.6875 45.2539C19.7461 45.8828 19.4922 46.2148 18.5195 45.8789C18.2383 46.6484 17.207 46.7891 15.9531 46.3125C15.5469 47.2305 15.2539 47.0039 14.7891 47.0039C14.8281 47.543 14.7266 47.9101 14.0859 47.9297C14.0976 48.3945 13.6601 48.4687 13.1562 48.6211C13.4531 49.9101 13.0937 50.2148 12.4531 50.1836C12.5351 51.0742 12.9219 52.3555 11.7539 52.3555C11.7148 53.7266 11.0195 53.6367 9.7539 53.2422C9.51171 53.8516 9.11718 54.3086 8.3828 53.7422C8.05077 54.1523 7.73827 53.7617 7.4414 53.3867L7.42968 53.3711C6.78905 53.6797 6.46093 53.6055 6.38671 53.2422C5.5078 53.4531 5.24218 53.0312 5.21484 52.625C4.51171 52.7383 4.08593 52.4648 4.0664 52.0312C3.40234 52.1641 3.1914 52.2031 3.38671 51.5703C2.70702 51.2031 2.59765 50.9101 3.1328 50.4141C3.1328 50.0078 3.3164 49.7461 4.0664 49.7422C4.27734 49.3516 4.58202 49.2266 5.30077 49.2812C5.28905 48.8828 5.73046 48.5078 5.92187 48.6211C5.93359 48.4375 6.02343 48.125 6.38671 48.0234C6.36718 47.6953 6.54687 47.4336 6.85546 47.2344C6.64452 46.6875 6.39843 45.9101 7.3203 45.6211C7.01171 44.5039 7.22655 43.6133 7.96874 43.0781C7.7539 41.6562 8.45312 41.0273 9.7539 41.0781C9.96484 40.25 10.6445 40.2031 11.5195 40.5391C11.6367 40.0703 12.1601 39.6016 13.1562 39.4609C13.418 38.2383 13.8476 37.5703 14.3945 37.5351C14.2969 36.7851 14.6601 36.0312 15.2539 35.457C14.6797 33.2695 15.1367 32.2812 16.0781 31.9961C15.9648 30.6953 16.7969 30.1562 18.0547 30.0703C18.4101 28.7422 19.0937 28.7578 19.7695 28.9922C19.9726 28.1797 21.043 27.9805 22.0234 28.3008C22.5976 27.2695 23.7773 27.2539 24.2148 27.3203C23.6055 26.9219 23.9492 24.8359 24.8203 24.8359C24.8203 24.8359 24.7226 24.3633 25.2891 24.375C24.8476 23.1289 25.0469 22.4844 25.8437 21.832C25.6328 20.6836 25.918 19.7851 26.957 19.4219C26.9375 17.9453 27.2734 16.7148 29.0234 16.7539C30.0469 15.3789 31.3906 13.9609 32.5234 14.6758C32.75 12.9844 33.375 12.4258 35.0898 10.9805C35.5976 9.8828 36.8359 8.39061 38.3555 7.74608Z" fill="url(#paint0_linear)"/>
<path d="M36.8867 12.9297L36.3164 12.6406C44.3398 3.14062 50.6445 7.74609 41.7617 17.8203L41.1875 16.957L37.2109 21.043L36.7812 20.3281L9.07812 50.7422L8.14844 51.6718L7.67969 50.9726L6.75 51.4414L6.28516 50.9726L6.51562 50.5078L7.44922 49.3437C15.9453 38.8789 26.4648 27.7578 34.9648 17.2891L34.3086 16.668L36.8867 12.9297Z" fill="#FDFFAD" stroke="#FFC149" stroke-width="1.39655"/>
<path d="M37.707 2.09375C38.0937 2.09375 38.4062 1.78125 38.4062 1.39844C38.4062 1.01172 38.0937 0.699219 37.707 0.699219C37.3203 0.699219 37.0078 1.01172 37.0078 1.39844C37.0078 1.78125 37.3203 2.09375 37.707 2.09375Z" fill="#FDFFAD" stroke="#FFC149" stroke-width="0.465517"/>
<path d="M41.664 4.88672C41.9218 4.88672 42.1289 4.67969 42.1289 4.42188C42.1289 4.16406 41.9218 3.95703 41.664 3.95703C41.4062 3.95703 41.1992 4.16406 41.1992 4.42188C41.1992 4.67969 41.4062 4.88672 41.664 4.88672Z" fill="#FDFFAD" stroke="#FFC149" stroke-width="0.465517"/>
<path d="M42.5937 23.043C42.8515 23.043 43.0586 22.8359 43.0586 22.5781C43.0586 22.3203 42.8515 22.1133 42.5937 22.1133C42.3359 22.1133 42.1289 22.3203 42.1289 22.5781C42.1289 22.8359 42.3359 23.043 42.5937 23.043Z" fill="#FDFFAD" stroke="#FFC149" stroke-width="0.465517"/>
<path d="M43.9922 21.1797C44.25 21.1797 44.457 20.9727 44.457 20.7148C44.457 20.457 44.25 20.25 43.9922 20.25C43.7343 20.25 43.5273 20.457 43.5273 20.7148C43.5273 20.9727 43.7343 21.1797 43.9922 21.1797Z" fill="#FDFFAD" stroke="#FFC149" stroke-width="0.465517"/>
<path d="M48.1797 16.0586C48.4375 16.0586 48.6484 15.8516 48.6484 15.5938C48.6484 15.3359 48.4375 15.1289 48.1797 15.1289C47.9258 15.1289 47.7148 15.3359 47.7148 15.5938C47.7148 15.8516 47.9258 16.0586 48.1797 16.0586Z" fill="#FDFFAD" stroke="#FFC149" stroke-width="0.465517"/>
<path d="M51.9062 18.3867C52.164 18.3867 52.3711 18.1797 52.3711 17.9219C52.3711 17.6641 52.164 17.457 51.9062 17.457C51.6484 17.457 51.4414 17.6641 51.4414 17.9219C51.4414 18.1797 51.6484 18.3867 51.9062 18.3867Z" fill="#FDFFAD" stroke="#FFC149" stroke-width="0.465517"/>
<path d="M44.457 24.9062C44.7148 24.9062 44.9218 24.6953 44.9218 24.4414C44.9218 24.1836 44.7148 23.9727 44.457 23.9727C44.1992 23.9727 43.9922 24.1836 43.9922 24.4414C43.9922 24.6953 44.1992 24.9062 44.457 24.9062Z" fill="#FDFFAD" stroke="#FFC149" stroke-width="0.465517"/>
<path d="M15.1289 47.7148C15.3867 47.7148 15.5937 47.5078 15.5937 47.25C15.5937 46.9922 15.3867 46.7852 15.1289 46.7852C14.8711 46.7852 14.6641 46.9922 14.6641 47.25C14.6641 47.5078 14.8711 47.7148 15.1289 47.7148Z" fill="#FDFFAD" stroke="#FFC149" stroke-width="0.465517"/>
<path d="M12.8008 51.4414C13.0586 51.4414 13.2656 51.2305 13.2656 50.9727C13.2656 50.7188 13.0586 50.5078 12.8008 50.5078C12.543 50.5078 12.3359 50.7188 12.3359 50.9727C12.3359 51.2305 12.543 51.4414 12.8008 51.4414Z" fill="#FDFFAD" stroke="#FFC149" stroke-width="0.465517"/>
<path d="M9.07813 53.7656C9.33594 53.7656 9.54297 53.5586 9.54297 53.3008C9.54297 53.043 9.33594 52.8359 9.07813 52.8359C8.82031 52.8359 8.61328 53.043 8.61328 53.3008C8.61328 53.5586 8.82031 53.7656 9.07813 53.7656Z" fill="#FDFFAD" stroke="#FFC149" stroke-width="0.465517"/>
<path d="M3.49219 50.5078C3.75 50.5078 3.95703 50.3008 3.95703 50.043C3.95703 49.7852 3.75 49.5781 3.49219 49.5781C3.23438 49.5781 3.02734 49.7852 3.02734 50.043C3.02734 50.3008 3.23438 50.5078 3.49219 50.5078Z" fill="#FDFFAD" stroke="#FFC149" stroke-width="0.465517"/>
<path d="M15.5937 50.9727C15.8515 50.9727 16.0586 50.7656 16.0586 50.5078C16.0586 50.25 15.8515 50.043 15.5937 50.043C15.3359 50.043 15.1289 50.25 15.1289 50.5078C15.1289 50.7656 15.3359 50.9727 15.5937 50.9727Z" fill="#FDFFAD" stroke="#FFC149" stroke-width="0.465517"/>
<path d="M6.28516 47.7148C6.54297 47.7148 6.75 47.5078 6.75 47.25C6.75 46.9922 6.54297 46.7852 6.28516 46.7852C6.02734 46.7852 5.82031 46.9922 5.82031 47.25C5.82031 47.5078 6.02734 47.7148 6.28516 47.7148Z" fill="#FDFFAD" stroke="#FFC149" stroke-width="0.465517"/>
<path d="M32.8203 4.88672C33.0742 4.88672 33.2851 4.67969 33.2851 4.42188C33.2851 4.16406 33.0742 3.95703 32.8203 3.95703C32.5625 3.95703 32.3515 4.16406 32.3515 4.42188C32.3515 4.67969 32.5625 4.88672 32.8203 4.88672Z" fill="#FDFFAD" stroke="#FFC149" stroke-width="0.465517"/>
<path d="M35.1484 11.4063C35.4023 11.4063 35.6132 11.1953 35.6132 10.9414C35.6132 10.6836 35.4023 10.4727 35.1484 10.4727C34.8906 10.4727 34.6797 10.6836 34.6797 10.9414C34.6797 11.1953 34.8906 11.4063 35.1484 11.4063Z" fill="#FDFFAD" stroke="#FFC149" stroke-width="0.465517"/>
<path d="M35.8437 5.35156C36.2304 5.35156 36.5429 5.03906 36.5429 4.65625C36.5429 4.26953 36.2304 3.95703 35.8437 3.95703C35.4609 3.95703 35.1484 4.26953 35.1484 4.65625C35.1484 5.03906 35.4609 5.35156 35.8437 5.35156Z" fill="#FDFFAD" stroke="#FFC149" stroke-width="0.465517"/>
<path d="M47.0156 19.7852C47.4023 19.7852 47.7148 19.4727 47.7148 19.0859C47.7148 18.6992 47.4023 18.3867 47.0156 18.3867C46.6328 18.3867 46.3203 18.6992 46.3203 19.0859C46.3203 19.4727 46.6328 19.7852 47.0156 19.7852Z" fill="#FDFFAD" stroke="#FFC149" stroke-width="0.465517"/>
<path d="M50.7422 15.1289C51.125 15.1289 51.4414 14.8164 51.4414 14.4297C51.4414 14.0469 51.125 13.7344 50.7422 13.7344C50.3554 13.7344 50.0429 14.0469 50.0429 14.4297C50.0429 14.8164 50.3554 15.1289 50.7422 15.1289Z" fill="#FDFFAD" stroke="#FFC149" stroke-width="0.465517"/>
<path d="M51.207 22.1133C51.5937 22.1133 51.9062 21.8008 51.9062 21.4141C51.9062 21.0273 51.5937 20.7148 51.207 20.7148C50.8203 20.7148 50.5078 21.0273 50.5078 21.4141C50.5078 21.8008 50.8203 22.1133 51.207 22.1133Z" fill="#FDFFAD" stroke="#FFC149" stroke-width="0.465517"/>
<path d="M39.1015 5.82031C39.7461 5.82031 40.2656 5.29687 40.2656 4.65625C40.2656 4.01172 39.7461 3.49219 39.1015 3.49219C38.4609 3.49219 37.9414 4.01172 37.9414 4.65625C37.9414 5.29687 38.4609 5.82031 39.1015 5.82031Z" fill="#FDFFAD" stroke="#FFC149" stroke-width="0.465517"/>
<path d="M47.0156 23.5078C47.6601 23.5078 48.1797 22.9883 48.1797 22.3437C48.1797 21.7031 47.6601 21.1797 47.0156 21.1797C46.375 21.1797 45.8515 21.7031 45.8515 22.3437C45.8515 22.9883 46.375 23.5078 47.0156 23.5078Z" fill="#FDFFAD" stroke="#FFC149" stroke-width="0.465517"/>
<path d="M35.3789 8.61328C36.0234 8.61328 36.5429 8.08984 36.5429 7.44922C36.5429 6.80469 36.0234 6.28516 35.3789 6.28516C34.7383 6.28516 34.2148 6.80469 34.2148 7.44922C34.2148 8.08984 34.7383 8.61328 35.3789 8.61328Z" fill="#FDFFAD" stroke="#FFC149" stroke-width="0.465517"/>
</g>
<defs>
<linearGradient id="paint0_linear" x1="25.3706" y1="6.05171" x2="25.3706" y2="54" gradientUnits="userSpaceOnUse">
<stop stop-color="#FFC149" stop-opacity="0.4"/>
<stop offset="1" stop-color="#FAFF00" stop-opacity="0"/>
</linearGradient>
<clipPath id="clip0">
<rect width="54" height="54" fill="white"/>
</clipPath>
</defs>
</svg>
