<svg width="373" height="364" viewBox="0 0 373 364" fill="none" xmlns="http://www.w3.org/2000/svg">
<path d="M190.676 16.4676C188.819 13.3314 184.181 13.3314 182.324 16.4676L23.4741 284.766C21.6162 287.904 23.9367 291.828 27.6504 291.828H345.35C349.064 291.828 351.385 287.904 349.527 284.766L190.676 16.4676Z" fill="#20BBBB" stroke="#EAFFFA" stroke-width="7"/>
<path d="M23.4741 284.766C21.6162 287.904 23.9367 291.828 27.6504 291.828H186.5V23.5344C186.5 20.9349 188.66 18.8275 191.323 18.8275H192.073L190.676 16.4676C188.819 13.3314 184.181 13.3314 182.324 16.4676L180.927 18.8275L23.4741 284.766Z" fill="#EA543F"/>
<path d="M282.966 222.793H292.612H282.966ZM186.5 31.3793V53.3448V31.3793ZM186.5 280.845V263.586V280.845ZM186.5 257.31H163.991L151.129 282.414L186.5 257.31ZM186.5 257.31V243.19V235.345V257.31ZM186.5 257.31V263.586V257.31ZM186.5 235.345H147.914L138.267 251.034H127.013L186.5 235.345ZM186.5 235.345V222.793V235.345ZM106.112 235.345L115.759 251.034H127.013L106.112 235.345ZM127.013 251.034V273V251.034ZM106.112 273L85.2112 238.483V229.069L106.112 273ZM94.8577 178.862V188.276V178.862ZM85.2112 229.069V216.517L94.8577 200.828V188.276L85.2112 229.069ZM85.2112 229.069H65.9181H85.2112ZM54.6638 247.897H67.5258L77.1724 266.724H86.8189V280.845L54.6638 247.897ZM57.8793 280.845V266.724H41.8017L57.8793 280.845ZM94.8577 188.276H102.897L109.328 197.69L94.8577 188.276ZM107.72 214.948L114.151 227.5H127.013V214.948H107.72ZM138.267 202.397H127.013V214.948L138.267 202.397ZM183.284 202.397H173.638H183.284ZM151.129 178.862H138.267L131.836 169.448L151.129 178.862ZM125.405 160.034H109.328H125.405ZM125.405 160.034L131.836 169.448L125.405 160.034ZM125.405 160.034V155.328V160.034ZM157.56 222.793L163.991 202.397H173.638L157.56 222.793ZM127.013 214.948H144.698H127.013ZM131.836 169.448L125.405 182V188.276L131.836 169.448ZM109.328 141.207H125.405V155.328L109.328 141.207ZM122.19 119.241H135.052L144.698 138.069L122.19 119.241ZM144.698 138.069H154.345H144.698ZM144.698 138.069V155.328H125.405L144.698 138.069ZM183.284 185.138H170.422L160.776 169.448V156.897H173.638V169.448H183.284V185.138ZM173.638 202.397V218.086V202.397ZM141.483 100.414H151.129H141.483ZM163.991 122.379V100.414H151.129L163.991 122.379ZM183.284 122.379H173.638V138.069L186.5 150.621L183.284 122.379ZM151.129 100.414V116.103V100.414ZM186.5 150.621V134.931V150.621ZM186.5 150.621V182V150.621ZM151.129 84.7242H167.207L171.066 91L151.129 84.7242ZM186.5 100.414H176.853L171.066 91L186.5 100.414ZM186.5 100.414V72.1724V100.414ZM186.5 100.414V109.828V100.414ZM171.066 91L186.5 72.1724L171.066 91ZM186.5 72.1724V53.3448V72.1724ZM170.422 50.2069V59.6207V50.2069ZM160.776 72.1724H170.422V59.6207L160.776 72.1724ZM170.422 59.6207H183.284H170.422ZM186.5 109.828H205.793L211.822 100.414L186.5 109.828ZM186.5 109.828V134.931V109.828ZM221.871 84.7242L211.822 100.414L221.871 84.7242ZM186.5 53.3448H192.931L196.147 59.6207L186.5 53.3448ZM217.047 78.4483H199.362V65.8966L196.147 59.6207L217.047 78.4483ZM196.147 59.6207L205.793 53.3448L196.147 59.6207ZM211.822 100.414L202.578 91H189.716L211.822 100.414ZM186.5 134.931H199.362L202.578 122.379H215.44V141.207V153.759H202.578L186.5 134.931ZM225.086 160.034H237.948H225.086ZM266.888 160.034H254.026V174.155L266.888 160.034ZM231.517 100.414V128.655V100.414ZM254.026 141.207H231.517V128.655L254.026 141.207ZM231.517 128.655H247.595H231.517ZM189.716 153.759H202.578H189.716ZM186.5 182H215.44V194.552L186.5 182ZM186.5 182V222.793V182ZM215.44 219.655V203.966V219.655ZM215.44 194.552H202.578V210.241L186.5 222.793L215.44 194.552ZM215.44 194.552V203.966V194.552ZM202.578 153.759V166.31V153.759ZM215.44 203.966H231.517H215.44ZM282.966 188.276H260.457H282.966ZM270.103 216.517H244.379V203.966L254.026 188.276H260.457L270.103 216.517ZM279.75 203.966H289.397H279.75ZM260.457 188.276V203.966V188.276ZM237.948 160.034V172.586L228.302 185.138L237.948 160.034ZM237.948 160.034V150.621V160.034ZM273.319 280.845V257.31L277.913 251.034L273.319 280.845ZM311.905 235.345H289.397L277.913 251.034L311.905 235.345ZM277.913 251.034H302.259L305.876 255.741L277.913 251.034ZM327.983 263.586H318.336H327.983ZM318.336 263.586H311.905L305.876 255.741L318.336 263.586ZM318.336 263.586V280.845V263.586ZM305.876 255.741L295.828 266.724V280.845L305.876 255.741ZM186.5 263.586H210.616L221.871 251.034V241.621V225.931L186.5 263.586ZM237.948 247.897V266.724H250.81L258.849 283.983L237.948 247.897ZM218.655 269.862V280.845V269.862ZM202.578 260.448V244.759L212.224 235.345L202.578 260.448ZM263.672 229.069V251.034H260.457L247.595 229.069H244.379V254.172L263.672 229.069ZM282.966 210.241V222.793V210.241ZM282.966 222.793L274.927 232.207L282.966 222.793Z" stroke="white" stroke-width="2"/>
<path d="M186.5 291.828V23.5344M186.5 291.828H27.6504C23.9367 291.828 21.6162 287.904 23.4741 284.766L180.927 18.8275L182.324 16.4676C184.181 13.3314 188.819 13.3314 190.676 16.4676L192.073 18.8275L349.527 284.766C351.385 287.904 349.064 291.828 345.35 291.828H186.5ZM186.5 291.828V18.8275V291.828Z" stroke="white" stroke-width="7"/>
<path d="M106.507 143.867C105.624 147.351 109.074 169.371 109.074 169.371C109.074 169.371 128.822 131.014 186.548 131.014C241.235 131.014 263.497 170.705 263.497 170.705C263.497 170.705 267.377 147.351 266.493 143.867C263.658 132.685 259.383 121.35 251.155 113.169C215.738 79.7992 157.352 79.0558 121.845 113.169C113.617 121.35 109.342 132.685 106.507 143.867Z" fill="#151515"/>
<path d="M275.838 148.34C271.725 137.157 267.611 130.448 255.269 116.657C253.942 115.457 252.57 114.294 251.155 113.169C259.383 121.35 263.658 132.685 266.493 143.867C267.377 147.351 263.497 170.705 263.497 170.705C258.837 178.41 242.927 202.016 234.7 206.489L234.693 206.493C226.472 210.962 225.767 211.345 223.867 217.773C220.758 236.78 231.329 266.615 241.852 278.057C255.752 281.835 263.189 276.039 271.479 271.451C273.004 270.608 274.454 269.805 275.838 269.111C259.926 265.487 238.883 239.43 282.009 164.198C281.03 161.971 280.05 159.283 279.07 156.594C277.993 153.638 276.916 150.683 275.838 148.34Z" fill="#151515"/>
<path d="M117.731 116.657C105.389 130.448 101.275 137.157 97.1617 148.34C96.0845 150.683 95.007 153.638 93.9298 156.594C92.9503 159.283 91.9706 161.971 90.9908 164.198C134.117 239.43 113.074 265.487 97.1617 269.111C98.546 269.805 99.9962 270.608 101.521 271.451C109.811 276.039 120.287 281.835 134.186 278.057C144.71 266.615 152.242 236.78 149.133 217.773C147.233 211.345 146.529 210.962 138.307 206.493C135.052 205.535 116.587 184.371 109.073 169.371C109.073 169.371 105.623 147.351 106.507 143.867C109.342 132.685 113.617 121.35 121.845 113.169C120.43 114.294 119.058 115.457 117.731 116.657Z" fill="#151515"/>
<path d="M281.159 166.31C295.496 195.636 307.943 253.012 274.608 269.862C257.717 266.285 235.379 240.567 281.159 166.31Z" fill="#FF001F" stroke="#74000E" stroke-width="3"/>
<path d="M91.841 166.31C77.5039 195.636 65.0573 253.012 98.3916 269.862C115.283 266.285 137.621 240.567 91.841 166.31Z" fill="#00D620" stroke="#007A1A" stroke-width="3"/>
<path d="M264.943 52.2224C295.33 27.5349 349.398 43.434 325.089 94.1809C325.089 94.1809 325.089 98.0481 321.357 100.478C323.086 105.667 319.625 113.11 318.133 111.374C320.222 117.559 315.197 127.195 310.074 125.384C311.103 132.552 303.317 136.76 297.179 136.28C297.488 144.398 281.259 142.472 281.061 142.507C282.127 145.372 280.937 152.459 266.554 151.847C266.297 162.739 259.95 164.978 255.271 162.743C255.47 165.098 247.681 170.326 242.376 165.856C242.13 172.016 240.02 173.762 234.317 175.196C237.541 182.386 233.452 183.761 231.093 189.027C235.152 196.558 232.629 199.584 227.87 201.481C231.338 209.437 227.967 215.781 218.199 218.174C218.553 224.921 214.783 225.999 208.528 223.273C209.602 230.744 207.144 233.702 197.245 233.097C195.711 237.488 192.795 241.034 184.35 237.964C184.266 240.635 182.796 243.7 171.455 240.574C169.527 242.383 169.842 244.982 165.008 243.688C165.052 246.722 163.502 248.935 160.172 249.647C160.102 254.227 157.842 258.787 153.172 262.367C155.776 266.969 156.103 271.147 152.113 273.264C153.45 279.767 152.715 284.569 149.744 287.273C150.677 292.489 149.977 296.437 144.755 296.613C146.299 302.784 144.764 306.648 135.995 305.039C136.396 309.271 134.628 311.511 127.935 309.267C125.968 314.449 118.847 315.381 110.205 312.18C107.398 318.368 105.369 316.849 102.146 316.849C102.42 320.464 101.717 322.959 97.3102 323.075C97.3658 326.21 94.3484 326.724 90.8628 327.744C92.932 336.44 90.4338 338.479 86.0273 338.275C86.5813 344.275 89.2508 352.923 81.1918 352.923C80.9111 362.155 76.1032 361.562 67.3847 358.879C65.7078 362.999 62.9785 366.08 57.9086 362.262C55.6159 365.039 53.4493 362.381 51.401 359.867L51.3232 359.773C46.8841 361.832 44.6384 361.342 44.1191 358.879C38.0534 360.303 36.2054 357.476 36.0292 354.743C31.1518 355.487 28.2291 353.648 28.0795 350.727C23.4909 351.621 22.0454 351.897 23.3851 347.614C18.7013 345.15 17.9304 343.164 21.6322 339.832C21.6322 337.086 22.9044 335.326 28.0795 335.294C29.5466 332.677 31.6549 331.817 36.6244 332.181C36.5286 329.495 39.5807 326.969 40.8956 327.744C40.9927 326.495 41.6146 324.39 44.1191 323.718C43.9751 321.497 45.2127 319.727 47.343 318.406C45.9066 314.703 44.2043 309.479 50.5666 307.51C48.4372 300.001 49.9254 293.994 55.0528 290.387C53.5544 280.781 58.3803 276.558 67.3847 276.889C68.8259 271.318 73.5369 271.011 79.5798 273.264C80.3818 270.115 84.007 266.954 90.8628 266.007C92.6744 257.751 95.6574 253.252 99.4167 253.028C98.7656 247.956 101.276 242.881 105.369 239.018C101.401 224.273 104.561 217.599 111.053 215.668C110.276 206.907 116.018 203.272 124.712 202.697C127.171 193.741 131.882 193.843 136.547 195.432C137.947 189.96 145.365 188.598 152.113 190.762C156.089 183.813 164.24 183.712 167.266 184.151C163.04 181.463 165.422 167.413 171.455 167.413C171.455 167.413 170.765 164.226 174.679 164.3C171.628 155.911 172.998 151.551 178.504 147.177C177.061 139.423 179.017 133.372 186.196 130.917C186.069 120.965 188.391 112.68 200.468 112.931C207.555 103.66 216.817 94.1097 224.646 98.9214C226.221 87.5363 230.524 83.768 242.376 74.0153C245.884 66.6264 254.428 56.5483 264.943 52.2224Z" fill="#FDFFAD" fill-opacity="0.4"/>
<path d="M264.943 52.2224C295.33 27.5349 349.398 43.434 325.089 94.1809C325.089 94.1809 325.089 98.0481 321.357 100.478C323.086 105.667 319.625 113.11 318.133 111.374C320.222 117.559 315.197 127.195 310.074 125.384C311.103 132.552 303.317 136.76 297.179 136.28C297.488 144.398 281.259 142.472 281.061 142.507C282.127 145.372 280.937 152.459 266.554 151.847C266.297 162.739 259.95 164.978 255.271 162.743C255.47 165.098 247.681 170.326 242.376 165.856C242.13 172.016 240.02 173.762 234.317 175.196C237.541 182.386 233.452 183.761 231.093 189.027C235.152 196.558 232.629 199.584 227.87 201.481C231.338 209.437 227.967 215.781 218.199 218.174C218.553 224.921 214.783 225.999 208.528 223.273C209.602 230.744 207.144 233.702 197.245 233.097C195.711 237.488 192.795 241.034 184.35 237.964C184.266 240.635 182.796 243.7 171.455 240.574C169.527 242.383 169.842 244.982 165.008 243.688C165.052 246.722 163.502 248.935 160.172 249.647C160.102 254.227 157.842 258.787 153.172 262.367C155.776 266.969 156.103 271.147 152.113 273.264C153.45 279.767 152.715 284.569 149.744 287.273C150.677 292.489 149.977 296.437 144.755 296.613C146.299 302.784 144.764 306.648 135.995 305.039C136.396 309.271 134.628 311.511 127.935 309.267C125.968 314.449 118.847 315.381 110.205 312.18C107.398 318.368 105.369 316.849 102.146 316.849C102.42 320.464 101.717 322.959 97.3102 323.075C97.3658 326.21 94.3484 326.724 90.8628 327.744C92.932 336.44 90.4338 338.479 86.0273 338.275C86.5813 344.275 89.2508 352.923 81.1918 352.923C80.9111 362.155 76.1032 361.562 67.3847 358.879C65.7078 362.999 62.9785 366.08 57.9086 362.262C55.6159 365.039 53.4493 362.381 51.401 359.867L51.3232 359.773C46.8841 361.832 44.6384 361.342 44.1191 358.879C38.0534 360.303 36.2054 357.476 36.0292 354.743C31.1518 355.487 28.2291 353.648 28.0795 350.727C23.4909 351.621 22.0454 351.897 23.3851 347.614C18.7013 345.15 17.9304 343.164 21.6322 339.832C21.6322 337.086 22.9044 335.326 28.0795 335.294C29.5466 332.677 31.6549 331.817 36.6244 332.181C36.5286 329.495 39.5807 326.969 40.8956 327.744C40.9927 326.495 41.6146 324.39 44.1191 323.718C43.9751 321.497 45.2127 319.727 47.343 318.406C45.9066 314.703 44.2043 309.479 50.5666 307.51C48.4372 300.001 49.9254 293.994 55.0528 290.387C53.5544 280.781 58.3803 276.558 67.3847 276.889C68.8259 271.318 73.5369 271.011 79.5798 273.264C80.3818 270.115 84.007 266.954 90.8628 266.007C92.6744 257.751 95.6574 253.252 99.4167 253.028C98.7656 247.956 101.276 242.881 105.369 239.018C101.401 224.273 104.561 217.599 111.053 215.668C110.276 206.907 116.018 203.272 124.712 202.697C127.171 193.741 131.882 193.843 136.547 195.432C137.947 189.96 145.365 188.598 152.113 190.762C156.089 183.813 164.24 183.712 167.266 184.151C163.04 181.463 165.422 167.413 171.455 167.413C171.455 167.413 170.765 164.226 174.679 164.3C171.628 155.911 172.998 151.551 178.504 147.177C177.061 139.423 179.017 133.372 186.196 130.917C186.069 120.965 188.391 112.68 200.468 112.931C207.555 103.66 216.817 94.1097 224.646 98.9214C226.221 87.5363 230.524 83.768 242.376 74.0153C245.884 66.6264 254.428 56.5483 264.943 52.2224Z" fill="url(#paint0_linear)"/>
<path d="M254.801 87.1438L250.841 85.2039C306.279 21.1833 349.835 52.2237 288.459 120.124L284.5 114.304L257.027 141.846L254.076 137.023L62.7026 342.035L56.2716 348.31L53.056 343.603L46.625 346.741L43.4095 343.603L45.0172 340.466L51.4483 332.621C110.148 262.065 182.803 187.101 241.503 116.546L236.982 112.364L254.801 87.1438Z" fill="#FDFFAD" stroke="#FFC149" stroke-width="3"/>
<path d="M260.457 14.1207C263.121 14.1207 265.28 12.0134 265.28 9.41381C265.28 6.81425 263.121 4.70691 260.457 4.70691C257.793 4.70691 255.634 6.81425 255.634 9.41381C255.634 12.0134 257.793 14.1207 260.457 14.1207Z" fill="#FDFFAD" stroke="#FFC149"/>
<path d="M287.789 32.9483C289.565 32.9483 291.004 31.5434 291.004 29.8104C291.004 28.0773 289.565 26.6724 287.789 26.6724C286.013 26.6724 284.573 28.0773 284.573 29.8104C284.573 31.5434 286.013 32.9483 287.789 32.9483Z" fill="#FDFFAD" stroke="#FFC149"/>
<path d="M294.22 155.328C295.996 155.328 297.435 153.923 297.435 152.19C297.435 150.457 295.996 149.052 294.22 149.052C292.444 149.052 291.004 150.457 291.004 152.19C291.004 153.923 292.444 155.328 294.22 155.328Z" fill="#FDFFAD" stroke="#FFC149"/>
<path d="M303.866 142.776C305.642 142.776 307.082 141.371 307.082 139.638C307.082 137.905 305.642 136.5 303.866 136.5C302.09 136.5 300.651 137.905 300.651 139.638C300.651 141.371 302.09 142.776 303.866 142.776Z" fill="#FDFFAD" stroke="#FFC149"/>
<path d="M332.806 108.259C334.581 108.259 336.022 106.854 336.022 105.121C336.022 103.388 334.581 101.983 332.806 101.983C331.031 101.983 329.591 103.388 329.591 105.121C329.591 106.854 331.031 108.259 332.806 108.259Z" fill="#FDFFAD" stroke="#FFC149"/>
<path d="M358.53 123.948C360.305 123.948 361.746 122.543 361.746 120.81C361.746 119.077 360.305 117.672 358.53 117.672C356.755 117.672 355.315 119.077 355.315 120.81C355.315 122.543 356.755 123.948 358.53 123.948Z" fill="#FDFFAD" stroke="#FFC149"/>
<path d="M307.082 167.879C308.858 167.879 310.297 166.474 310.297 164.741C310.297 163.008 308.858 161.603 307.082 161.603C305.306 161.603 303.866 163.008 303.866 164.741C303.866 166.474 305.306 167.879 307.082 167.879Z" fill="#FDFFAD" stroke="#FFC149"/>
<path d="M104.504 321.638C106.28 321.638 107.72 320.232 107.72 318.5C107.72 316.768 106.28 315.362 104.504 315.362C102.728 315.362 101.289 316.768 101.289 318.5C101.289 320.232 102.728 321.638 104.504 321.638Z" fill="#FDFFAD" stroke="#FFC149"/>
<path d="M88.4267 346.741C90.2026 346.741 91.6422 345.336 91.6422 343.603C91.6422 341.871 90.2026 340.466 88.4267 340.466C86.6508 340.466 85.2112 341.871 85.2112 343.603C85.2112 345.336 86.6508 346.741 88.4267 346.741Z" fill="#FDFFAD" stroke="#FFC149"/>
<path d="M62.7026 362.431C64.4785 362.431 65.9181 361.025 65.9181 359.293C65.9181 357.561 64.4785 356.155 62.7026 356.155C60.9266 356.155 59.4871 357.561 59.4871 359.293C59.4871 361.025 60.9266 362.431 62.7026 362.431Z" fill="#FDFFAD" stroke="#FFC149"/>
<path d="M24.1164 340.466C25.8923 340.466 27.3319 339.06 27.3319 337.328C27.3319 335.595 25.8923 334.19 24.1164 334.19C22.3405 334.19 20.9009 335.595 20.9009 337.328C20.9009 339.06 22.3405 340.466 24.1164 340.466Z" fill="#FDFFAD" stroke="#FFC149"/>
<path d="M107.72 343.603C109.496 343.603 110.935 342.198 110.935 340.465C110.935 338.733 109.496 337.328 107.72 337.328C105.944 337.328 104.504 338.733 104.504 340.465C104.504 342.198 105.944 343.603 107.72 343.603Z" fill="#FDFFAD" stroke="#FFC149"/>
<path d="M43.4095 321.638C45.1854 321.638 46.625 320.232 46.625 318.5C46.625 316.768 45.1854 315.362 43.4095 315.362C41.6336 315.362 40.194 316.768 40.194 318.5C40.194 320.232 41.6336 321.638 43.4095 321.638Z" fill="#FDFFAD" stroke="#FFC149"/>
<path d="M226.694 32.9483C228.47 32.9483 229.91 31.5434 229.91 29.8104C229.91 28.0773 228.47 26.6724 226.694 26.6724C224.918 26.6724 223.478 28.0773 223.478 29.8104C223.478 31.5434 224.918 32.9483 226.694 32.9483Z" fill="#FDFFAD" stroke="#FFC149"/>
<path d="M242.772 76.8793C244.548 76.8793 245.987 75.4745 245.987 73.7414C245.987 72.0083 244.548 70.6035 242.772 70.6035C240.996 70.6035 239.556 72.0083 239.556 73.7414C239.556 75.4745 240.996 76.8793 242.772 76.8793Z" fill="#FDFFAD" stroke="#FFC149"/>
<path d="M247.595 36.0862C250.259 36.0862 252.418 33.9788 252.418 31.3793C252.418 28.7798 250.259 26.6724 247.595 26.6724C244.931 26.6724 242.772 28.7798 242.772 31.3793C242.772 33.9788 244.931 36.0862 247.595 36.0862Z" fill="#FDFFAD" stroke="#FFC149"/>
<path d="M324.767 133.362C327.43 133.362 329.591 131.255 329.591 128.655C329.591 126.056 327.43 123.948 324.767 123.948C322.105 123.948 319.944 126.056 319.944 128.655C319.944 131.255 322.105 133.362 324.767 133.362Z" fill="#FDFFAD" stroke="#FFC149"/>
<path d="M350.491 101.983C353.154 101.983 355.315 99.8753 355.315 97.2759C355.315 94.6764 353.154 92.569 350.491 92.569C347.829 92.569 345.668 94.6764 345.668 97.2759C345.668 99.8753 347.829 101.983 350.491 101.983Z" fill="#FDFFAD" stroke="#FFC149"/>
<path d="M353.707 149.052C356.369 149.052 358.53 146.944 358.53 144.345C358.53 141.745 356.369 139.638 353.707 139.638C351.044 139.638 348.884 141.745 348.884 144.345C348.884 146.944 351.044 149.052 353.707 149.052Z" fill="#FDFFAD" stroke="#FFC149"/>
<path d="M270.103 39.2241C274.543 39.2241 278.142 35.7119 278.142 31.3793C278.142 27.0467 274.543 23.5345 270.103 23.5345C265.664 23.5345 262.065 27.0467 262.065 31.3793C262.065 35.7119 265.664 39.2241 270.103 39.2241Z" fill="#FDFFAD" stroke="#FFC149"/>
<path d="M324.767 158.466C329.208 158.466 332.806 154.953 332.806 150.621C332.806 146.288 329.208 142.776 324.767 142.776C320.328 142.776 316.728 146.288 316.728 150.621C316.728 154.953 320.328 158.466 324.767 158.466Z" fill="#FDFFAD" stroke="#FFC149"/>
<path d="M244.379 58.0517C248.819 58.0517 252.418 54.5394 252.418 50.2069C252.418 45.8743 248.819 42.3621 244.379 42.3621C239.94 42.3621 236.341 45.8743 236.341 50.2069C236.341 54.5394 239.94 58.0517 244.379 58.0517Z" fill="#FDFFAD" stroke="#FFC149"/>
<defs>
<linearGradient id="paint0_linear" x1="175.245" y1="40.7931" x2="175.245" y2="364" gradientUnits="userSpaceOnUse">
<stop stop-color="#FFC149" stop-opacity="0.4"/>
<stop offset="1" stop-color="#FAFF00" stop-opacity="0"/>
</linearGradient>
</defs>
</svg>
