<svg width="22" height="22" viewBox="0 0 22 22" fill="none" xmlns="http://www.w3.org/2000/svg">
<path d="M10.9914 1.63916C5.67832 1.63701 1.375 5.93819 1.375 11.247C1.375 15.445 4.06699 19.0136 7.81601 20.3241C8.3209 20.4509 8.24355 20.0921 8.24355 19.8472V18.1821C5.32812 18.5237 5.20996 16.5944 5.01445 16.2722C4.61914 15.5976 3.68457 15.4257 3.96387 15.1034C4.62773 14.7618 5.30449 15.1894 6.08867 16.3474C6.65586 17.1874 7.7623 17.0456 8.32305 16.906C8.44551 16.4011 8.70762 15.9499 9.06855 15.5997C6.04785 15.0583 4.78887 13.2149 4.78887 11.0235C4.78887 9.96006 5.13906 8.98252 5.82656 8.19405C5.38828 6.89424 5.86738 5.78135 5.93184 5.61592C7.18008 5.5042 8.47773 6.50967 8.57871 6.58916C9.28769 6.39795 10.0977 6.29698 11.0043 6.29698C11.9152 6.29698 12.7273 6.40225 13.4428 6.59561C13.6855 6.41084 14.8887 5.54717 16.0488 5.65244C16.1111 5.81787 16.5795 6.90498 16.167 8.1876C16.8631 8.97823 17.2176 9.96436 17.2176 11.03C17.2176 13.2257 15.95 15.0712 12.9207 15.604C13.1802 15.8592 13.3862 16.1635 13.5267 16.4992C13.6673 16.8349 13.7395 17.1952 13.7393 17.5591V19.9761C13.7564 20.1694 13.7393 20.3607 14.0615 20.3607C17.8664 19.078 20.6057 15.4837 20.6057 11.2491C20.6057 5.93819 16.3002 1.63916 10.9914 1.63916Z" fill="#F2F2F2"/>
</svg>
